HIERARCHY
ROOT Hips
{
	OFFSET 0.0000 0.0000 0.0000
	CHANNELS 6 Xposition Yposition Zposition Zrotation Xrotation Yrotation
	JOINT Spine1
	{
		OFFSET -0.0137 5.0038 -0.0537
		CHANNELS 3 Zrotation Xrotation Yrotation
		JOINT Spine2
		{
			OFFSET -0.0000 7.1253 -0.0298
			CHANNELS 3 Zrotation Xrotation Yrotation
			JOINT Chest
			{
				OFFSET -0.0000 7.5501 -0.8160
				CHANNELS 3 Zrotation Xrotation Yrotation
				JOINT Neck1
				{
					OFFSET -0.1817 26.3113 -0.5533
					CHANNELS 3 Zrotation Xrotation Yrotation
					JOINT Neck2
					{
						OFFSET -0.0000 7.7094 2.3026
						CHANNELS 3 Zrotation Xrotation Yrotation
						JOINT Head
						{
							OFFSET -0.0000 6.1289 1.9537
							CHANNELS 3 Zrotation Xrotation Yrotation
							JOINT Jaw
							{
								OFFSET 0.0026 0.4756 3.0949
								CHANNELS 3 Zrotation Xrotation Yrotation
								End Site
								{
									OFFSET 0.0 1.0 0.0
								}
							}
							JOINT LeftEye
							{
								OFFSET 3.2064 5.3802 7.5869
								CHANNELS 3 Zrotation Xrotation Yrotation
								End Site
								{
									OFFSET 0.0 1.0 0.0
								}
							}
							JOINT RightEye
							{
								OFFSET -3.2224 5.3619 7.5582
								CHANNELS 3 Zrotation Xrotation Yrotation
								End Site
								{
									OFFSET 0.0 1.0 0.0
								}
							}
						}
					}
				}
				JOINT LeftShoulder
				{
					OFFSET 1.6217 23.2372 5.1134
					CHANNELS 3 Zrotation Xrotation Yrotation
					JOINT LeftArm
					{
						OFFSET 14.9198 0.0000 -5.5023
						CHANNELS 3 Zrotation Xrotation Yrotation
						JOINT LeftForeArm
						{
							OFFSET 28.7393 0.0000 -0.0026
							CHANNELS 3 Zrotation Xrotation Yrotation
							JOINT LeftHand
							{
								OFFSET 27.0940 -0.0000 0.0026
								CHANNELS 3 Zrotation Xrotation Yrotation
								JOINT LeftHandThumbEnd
								{
									OFFSET 12.2686 -3.2202 4.8331
									CHANNELS 3 Zrotation Xrotation Yrotation
									End Site
									{
										OFFSET 0.0 1.0 0.0
									}
								}
								JOINT LeftHandMiddleEnd
								{
									OFFSET 19.0120 -0.3129 -0.0340
									CHANNELS 3 Zrotation Xrotation Yrotation
									End Site
									{
										OFFSET 0.0 1.0 0.0
									}
								}
							}
						}
					}
				}
				JOINT RightShoulder
				{
					OFFSET -1.3801 23.1803 5.2142
					CHANNELS 3 Zrotation Xrotation Yrotation
					JOINT RightArm
					{
						OFFSET -15.0372 0.0000 -5.5456
						CHANNELS 3 Zrotation Xrotation Yrotation
						JOINT RightForeArm
						{
							OFFSET -28.7366 0.0000 -0.0026
							CHANNELS 3 Zrotation Xrotation Yrotation
							JOINT RightHand
							{
								OFFSET -27.1336 -0.0000 0.0026
								CHANNELS 3 Zrotation Xrotation Yrotation
								JOINT RightHandThumbEnd
								{
									OFFSET -12.2642 -3.2115 4.8040
									CHANNELS 3 Zrotation Xrotation Yrotation
									End Site
									{
										OFFSET 0.0 1.0 0.0
									}
								}
								JOINT RightHandMiddleEnd
								{
									OFFSET -19.0006 -0.3066 -0.0316
									CHANNELS 3 Zrotation Xrotation Yrotation
									End Site
									{
										OFFSET 0.0 1.0 0.0
									}
								}
							}
						}
					}
				}
			}
		}
	}
	JOINT LeftLeg
	{
		OFFSET 10.0432 -8.4345 2.5957
		CHANNELS 3 Zrotation Xrotation Yrotation
		JOINT LeftShin
		{
			OFFSET -0.0000 -43.2218 -0.8029
			CHANNELS 3 Zrotation Xrotation Yrotation
			JOINT LeftFoot
			{
				OFFSET 0.0000 -42.1551 -3.4815
				CHANNELS 3 Zrotation Xrotation Yrotation
				JOINT LeftToeBase
				{
					OFFSET 0.0000 -5.0595 13.2315
					CHANNELS 3 Zrotation Xrotation Yrotation
					End Site
					{
						OFFSET 0.0 1.0 0.0
					}
				}
			}
		}
	}
	JOINT RightLeg
	{
		OFFSET -10.0473 -8.2953 2.6203
		CHANNELS 3 Zrotation Xrotation Yrotation
		JOINT RightShin
		{
			OFFSET 0.0000 -43.3622 -0.8056
			CHANNELS 3 Zrotation Xrotation Yrotation
			JOINT RightFoot
			{
				OFFSET 0.0000 -42.1174 -3.4784
				CHANNELS 3 Zrotation Xrotation Yrotation
				JOINT RightToeBase
				{
					OFFSET -0.0000 -5.0796 13.2842
					CHANNELS 3 Zrotation Xrotation Yrotation
					End Site
					{
						OFFSET 0.0 1.0 0.0
					}
				}
			}
		}
	}
}
MOTION
Frames: 6
Frame Time: 0.033333
0.2235 99.9891 0.7788 -0.5689 -2.1285 -0.1065 -0.2984 -1.5050 0.1932 -0.5391 -5.8532 -0.1577 0.0341 13.9025 -2.2319 0.3426 25.3644 3.2648 -0.5930 -3.7305 0.4165 0.4000 -8.2915 -0.2542 0.0150 0.0194 0.0226 0.6795 -10.3849 -3.8027 -0.6496 -10.4234 3.8527 -17.6564 12.5590 -10.1628 -54.4068 6.9506 -24.1658 -0.0336 0.0962 -32.0558 -0.8694 -14.8535 3.9627 -15.9480 10.5697 15.6937 -60.3975 1.4748 2.6469 15.7532 12.3112 13.5080 57.5277 7.7608 26.4052 0.1005 0.0216 38.3325 2.7831 -6.6552 -5.4394 15.4492 7.2026 -16.3271 49.7056 -3.7448 -5.4942 4.9888 -2.3129 8.3487 -0.0299 8.3820 -0.1150 -5.0867 -4.2452 0.7983 1.6637 0.0597 -1.8823 -3.5039 2.2946 -11.1084 0.0168 2.7602 -0.0961 4.5726 -3.0337 2.2631 -1.4332 -0.2019 1.1086
0.2374 100.0003 0.7888 -0.5831 -2.0980 -0.0734 -0.3039 -1.5186 0.1511 -0.5278 -5.8233 -0.0588 0.0202 13.8622 -2.2894 0.3706 25.2449 3.2554 -0.5974 -3.7338 0.3802 0.4049 -8.3258 -0.2709 0.0079 0.0128 0.0315 0.6720 -10.3865 -3.7931 -0.6565 -10.4262 3.8624 -17.6539 12.5727 -10.1830 -54.3667 6.8895 -24.0252 -0.1115 0.0587 -32.0346 -0.8221 -14.7029 3.8873 -15.9128 10.5433 15.6702 -60.3028 1.4700 2.5633 15.7553 12.3500 13.4922 57.5078 7.7286 26.3919 0.0999 0.0265 38.2272 2.8678 -6.8636 -5.4378 15.4095 7.1845 -16.3099 49.7909 -3.6962 -5.4816 5.0038 -2.3319 8.3862 -0.0449 8.3343 -0.1492 -5.1706 -4.2361 0.7171 1.6687 0.0245 -1.8877 -3.4845 2.2493 -11.0882 0.0108 2.7781 -0.0892 4.5533 -3.0733 2.2133 -1.4355 -0.2384 1.0964
0.2310 100.0087 0.7770 -0.5795 -2.0879 -0.0516 -0.3114 -1.5248 0.1410 -0.5275 -5.8292 -0.0291 0.0035 13.8835 -2.3042 0.4228 25.1576 3.2427 -0.6122 -3.7629 0.3471 0.4024 -8.3430 -0.2874 0.0091 0.0080 0.0233 0.6716 -10.4133 -3.8008 -0.6535 -10.4510 3.8530 -17.6170 12.5761 -10.2166 -54.3379 6.8745 -23.9115 -0.1616 0.0164 -32.0839 -0.8008 -14.6918 3.9238 -15.9147 10.5677 15.6845 -60.2947 1.4753 2.5517 15.7346 12.3756 13.4882 57.4709 7.7005 26.3401 0.1392 0.0158 38.1699 2.8706 -6.9661 -5.4343 15.4087 7.1889 -16.3000 49.8399 -3.6798 -5.4777 4.9965 -2.3591 8.3857 -0.0537 8.3665 -0.1731 -5.2039 -4.2598 0.7026 1.6699 0.0568 -1.8885 -3.4956 2.2046 -11.0736 0.0094 2.8438 -0.0970 4.5277 -3.1254 2.2174 -1.4363 -0.2244 1.0931
0.2354 99.9954 0.7697 -0.5737 -2.0827 -0.0381 -0.3267 -1.5235 0.1280 -0.5229 -5.8201 -0.0111 -0.0141 13.8772 -2.3129 0.4428 25.0657 3.2100 -0.6162 -3.7899 0.3420 0.4022 -8.3876 -0.2777 0.0121 0.0068 0.0135 0.6754 -10.4212 -3.8095 -0.6510 -10.4565 3.8401 -17.5933 12.5597 -10.2464 -54.3179 6.9239 -23.9192 -0.1559 0.0301 -32.0981 -0.7694 -14.7062 3.9661 -15.9186 10.5626 15.6685 -60.2682 1.4708 2.5588 15.7278 12.3724 13.4941 57.4186 7.7440 26.3411 0.1324 0.0391 38.1496 2.8927 -7.0719 -5.4579 15.4031 7.1877 -16.2766 49.7863 -3.6773 -5.4737 4.9896 -2.3933 8.4085 -0.0522 8.4016 -0.1835 -5.2252 -4.2669 0.6785 1.6706 0.0744 -1.8808 -3.5170 2.1745 -11.0771 0.0073 2.8821 -0.0963 4.5305 -3.1463 2.2115 -1.4374 -0.2033 1.0872
0.2470 99.9887 0.7575 -0.5673 -2.0708 0.0018 -0.3407 -1.5227 0.1324 -0.5161 -5.8251 -0.0337 -0.0378 13.8752 -2.3028 0.4494 24.9671 3.1686 -0.6010 -3.8020 0.3462 0.3999 -8.4571 -0.2601 0.0137 0.0121 0.0084 0.6781 -10.4283 -3.8142 -0.6504 -10.4637 3.8333 -17.5758 12.5660 -10.2816 -54.2708 6.9604 -24.0085 -0.1227 0.0444 -32.1141 -0.7182 -14.7709 4.0067 -15.8985 10.5550 15.6345 -60.2822 1.4627 2.5550 15.6953 12.3559 13.4873 57.3841 7.8238 26.3934 0.0882 0.0530 38.1740 2.9262 -7.1535 -5.4711 15.4344 7.1983 -16.2579 49.7870 -3.6685 -5.4732 4.9746 -2.4269 8.4113 -0.0456 8.4253 -0.1818 -5.2164 -4.2597 0.6313 1.6687 0.0960 -1.8719 -3.5349 2.1492 -11.1148 0.0075 2.9012 -0.0922 4.5565 -3.1475 2.2176 -1.4377 -0.1714 1.0799
0.2752 99.9791 0.7533 -0.5680 -2.0631 0.0142 -0.3524 -1.5215 0.1300 -0.5116 -5.8236 -0.0498 -0.0640 13.8636 -2.2892 0.4532 24.8508 3.1386 -0.6018 -3.8028 0.3848 0.4273 -8.4621 -0.2795 0.0119 0.0176 0.0139 0.6785 -10.4315 -3.8080 -0.6541 -10.4680 3.8387 -17.5836 12.5561 -10.3092 -54.2201 6.9830 -24.0803 -0.0824 0.0553 -32.0661 -0.6999 -14.8169 4.0097 -15.8660 10.5585 15.6081 -60.2661 1.4681 2.5512 15.6811 12.3520 13.4868 57.3236 7.8833 26.4324 0.0566 0.0716 38.2058 2.9252 -7.2185 -5.4711 15.4389 7.2082 -16.2571 49.7645 -3.6692 -5.4806 4.9630 -2.4431 8.4101 -0.0394 8.4261 -0.1725 -5.1932 -4.2505 0.6223 1.6686 0.1157 -1.8831 -3.5477 2.1305 -11.1657 0.0075 2.9046 -0.0845 4.5855 -3.1392 2.2607 -1.4390 -0.1471 1.0751
